<svg width="352" height="196" viewBox="0 0 352 196" fill="none" xmlns="http://www.w3.org/2000/svg">
<path d="M35.9 66.5V38.5H62.9V66.5H53.9V46.5H44.9V66.5H35.9ZM68.4969 66.5V38.5H83.0969C86.6435 38.5 89.4969 39.5133 91.6569 41.54C93.8169 43.54 94.8969 46.06 94.8969 49.1C94.8969 52.14 93.8169 54.6733 91.6569 56.7C89.4969 58.7 86.6435 59.7 83.0969 59.7H77.4969V66.5H68.4969ZM77.4969 52.1H82.2969C83.3902 52.1 84.2302 51.8333 84.8169 51.3C85.4035 50.7667 85.6969 50.0333 85.6969 49.1C85.6969 48.1667 85.4035 47.4333 84.8169 46.9C84.2302 46.3667 83.3902 46.1 82.2969 46.1H77.4969V52.1ZM102.382 63.02C99.3949 60.14 97.9016 56.6333 97.9016 52.5C97.9016 48.3667 99.3949 44.8733 102.382 42.02C105.395 39.14 109.168 37.7 113.702 37.7C118.235 37.7 121.995 39.14 124.982 42.02C127.995 44.8733 129.502 48.3667 129.502 52.5C129.502 56.6333 127.995 60.14 124.982 63.02C121.995 65.8733 118.235 67.3 113.702 67.3C109.168 67.3 105.395 65.8733 102.382 63.02ZM109.142 47.62C107.915 48.9 107.302 50.5267 107.302 52.5C107.302 54.4733 107.915 56.1 109.142 57.38C110.368 58.66 111.888 59.3 113.702 59.3C115.515 59.3 117.035 58.66 118.262 57.38C119.488 56.1 120.102 54.4733 120.102 52.5C120.102 50.5267 119.488 48.9 118.262 47.62C117.035 46.34 115.515 45.7 113.702 45.7C111.888 45.7 110.368 46.34 109.142 47.62ZM133.886 66.5V38.5H146.086L150.686 52.1H151.686L156.286 38.5H168.486V66.5H159.486V52.5L160.086 48.9H159.686L155.686 60.1H146.686L142.686 48.9H142.286L142.886 52.5V66.5H133.886ZM39.18 111.02C36.1933 108.14 34.7 104.633 34.7 100.5C34.7 96.3667 36.1933 92.8733 39.18 90.02C42.1933 87.14 45.9667 85.7 50.5 85.7C55.8067 85.7 59.8867 87.6067 62.74 91.42C64.02 93.0467 64.94 94.94 65.5 97.1H56.3C56.0067 96.4067 55.62 95.8467 55.14 95.42C53.8867 94.2733 52.34 93.7 50.5 93.7C48.5533 93.7 46.9933 94.3133 45.82 95.54C44.6733 96.7667 44.1 98.42 44.1 100.5C44.1 102.58 44.6733 104.233 45.82 105.46C46.9933 106.687 48.5533 107.3 50.5 107.3C52.58 107.3 54.2067 106.607 55.38 105.22C55.8867 104.66 56.26 103.953 56.5 103.1H65.7C65.0867 105.367 64.1267 107.407 62.82 109.22C59.8867 113.273 55.78 115.3 50.5 115.3C45.9667 115.3 42.1933 113.873 39.18 111.02ZM68.0984 94.5V86.5H94.2984V94.5H85.6984V114.5H76.6984V94.5H68.0984ZM97.8906 114.5V86.5H112.491C116.037 86.5 118.891 87.5133 121.051 89.54C123.211 91.54 124.291 94.06 124.291 97.1C124.291 100.14 123.211 102.673 121.051 104.7C118.891 106.7 116.037 107.7 112.491 107.7H106.891V114.5H97.8906ZM106.891 100.1H111.691C112.784 100.1 113.624 99.8333 114.211 99.3C114.797 98.7667 115.091 98.0333 115.091 97.1C115.091 96.1667 114.797 95.4333 114.211 94.9C113.624 94.3667 112.784 94.1 111.691 94.1H106.891V100.1ZM131.775 111.02C128.789 108.14 127.295 104.633 127.295 100.5C127.295 96.3667 128.789 92.8733 131.775 90.02C134.789 87.14 138.562 85.7 143.095 85.7C147.629 85.7 151.389 87.14 154.375 90.02C157.389 92.8733 158.895 96.3667 158.895 100.5C158.895 104.633 157.389 108.14 154.375 111.02C151.389 113.873 147.629 115.3 143.095 115.3C138.562 115.3 134.789 113.873 131.775 111.02ZM138.535 95.62C137.309 96.9 136.695 98.5267 136.695 100.5C136.695 102.473 137.309 104.1 138.535 105.38C139.762 106.66 141.282 107.3 143.095 107.3C144.909 107.3 146.429 106.66 147.655 105.38C148.882 104.1 149.495 102.473 149.495 100.5C149.495 98.5267 148.882 96.9 147.655 95.62C146.429 94.34 144.909 93.7 143.095 93.7C141.282 93.7 139.762 94.34 138.535 95.62ZM163.28 114.5V86.5H172.28V97.5L171.68 101.3H172.08L180.88 86.5H190.88V114.5H181.88V103.5L182.48 99.7H182.08L173.28 114.5H163.28ZM170.08 77.5H175.28C175.28 78.0067 175.48 78.4333 175.88 78.78C176.28 79.1267 176.813 79.3 177.48 79.3C178.146 79.3 178.68 79.1267 179.08 78.78C179.48 78.4333 179.68 78.0067 179.68 77.5H184.88C184.88 79.5267 184.24 81.14 182.96 82.34C181.68 83.5133 179.853 84.1 177.48 84.1C175.106 84.1 173.28 83.5133 172 82.34C170.72 81.14 170.08 79.5267 170.08 77.5ZM35.9 162.5V134.5H44.9V144.1H47.3L53.3 134.5H63.3L55.1 147.5L64.1 162.5H54.1L47.7 152.3H44.9V162.5H35.9ZM68.5737 159.02C65.5871 156.14 64.0937 152.633 64.0937 148.5C64.0937 144.367 65.5871 140.873 68.5737 138.02C71.5871 135.14 75.3604 133.7 79.8937 133.7C84.4271 133.7 88.1871 135.14 91.1737 138.02C94.1871 140.873 95.6938 144.367 95.6938 148.5C95.6938 152.633 94.1871 156.14 91.1737 159.02C88.1871 161.873 84.4271 163.3 79.8937 163.3C75.3604 163.3 71.5871 161.873 68.5737 159.02ZM75.3338 143.62C74.1071 144.9 73.4937 146.527 73.4937 148.5C73.4937 150.473 74.1071 152.1 75.3338 153.38C76.5604 154.66 78.0804 155.3 79.8937 155.3C81.7071 155.3 83.2271 154.66 84.4538 153.38C85.6804 152.1 86.2938 150.473 86.2938 148.5C86.2938 146.527 85.6804 144.9 84.4538 143.62C83.2271 142.34 81.7071 141.7 79.8937 141.7C78.0804 141.7 76.5604 142.34 75.3338 143.62ZM100.078 162.5V134.5H112.278L116.878 148.1H117.878L122.478 134.5H134.678V162.5H125.678V148.5L126.278 144.9H125.878L121.878 156.1H112.878L108.878 144.9H108.478L109.078 148.5V162.5H100.078ZM140.292 162.5V134.5H167.292V162.5H158.292V142.5H149.292V162.5H140.292ZM170.289 162.5L177.689 134.5H192.489L199.889 162.5H191.089L186.089 142.5H184.089L179.089 162.5H170.289ZM202.908 162.5V134.5H225.308V142.1H211.908V145.3H222.508V151.7H211.908V154.9H225.308V162.5H202.908ZM230.309 162.5V134.5H239.309V144.1H241.709L247.709 134.5H257.709L249.509 147.5L258.509 162.5H248.509L242.109 152.3H239.309V162.5H230.309ZM259.305 142.5V134.5H285.505V142.5H276.905V162.5H267.905V142.5H259.305Z" fill="#1E1C1C"/>
<path d="M3.5 66.5V192.5H348.5" stroke="#1E1C1C" stroke-width="7"/>
<path d="M348.5 129.5L348.5 3.5L3.50001 3.49997" stroke="#1E1C1C" stroke-width="7"/>
</svg>
